<svg width="17" height="17" viewBox="0 0 17 17" fill="none" xmlns="http://www.w3.org/2000/svg">
<path d="M5.08935 13.8869L5.49115 13.2536C5.30075 13.1328 5.0661 13.1041 4.85218 13.1754L5.08935 13.8869ZM2.125 14.875L1.41349 14.6378C1.32365 14.9073 1.3938 15.2045 1.59467 15.4053C1.79554 15.6062 2.09267 15.6763 2.36217 15.5865L2.125 14.875ZM3.11312 11.9106L3.82463 12.1478C3.89594 11.9339 3.86721 11.6992 3.74641 11.5088L3.11312 11.9106ZM8.5 15.625C12.435 15.625 15.625 12.435 15.625 8.5H14.125C14.125 11.6066 11.6066 14.125 8.5 14.125V15.625ZM4.68755 14.5202C5.79042 15.2199 7.09905 15.625 8.5 15.625V14.125C7.39195 14.125 6.36084 13.8054 5.49115 13.2536L4.68755 14.5202ZM4.85218 13.1754L1.88783 14.1635L2.36217 15.5865L5.32652 14.5984L4.85218 13.1754ZM2.83651 15.1122L3.82463 12.1478L2.4016 11.6735L1.41349 14.6378L2.83651 15.1122ZM1.375 8.5C1.375 9.90095 1.78009 11.2096 2.47983 12.3124L3.74641 11.5088C3.19462 10.6392 2.875 9.60805 2.875 8.5H1.375ZM8.5 1.375C4.56497 1.375 1.375 4.56497 1.375 8.5H2.875C2.875 5.3934 5.3934 2.875 8.5 2.875V1.375ZM15.625 8.5C15.625 4.56497 12.435 1.375 8.5 1.375V2.875C11.6066 2.875 14.125 5.3934 14.125 8.5H15.625Z" fill="#727272"/>
<path d="M11.333 8.5H11.3344V8.50142H11.333V8.5Z" stroke="#727272" stroke-width="1.5" stroke-linecap="round" stroke-linejoin="round"/>
<path d="M8.5 8.5H8.50142V8.50142H8.5V8.5Z" stroke="#727272" stroke-width="1.5" stroke-linecap="round" stroke-linejoin="round"/>
<path d="M5.66699 8.5H5.66841V8.50142H5.66699V8.5Z" stroke="#727272" stroke-width="1.5" stroke-linecap="round" stroke-linejoin="round"/>
</svg>
