<svg width="41" height="41" viewBox="0 0 41 41" fill="none" xmlns="http://www.w3.org/2000/svg">
<path d="M11.4394 2.93414L11.4399 2.93389C13.9006 1.68425 16.0803 1.06646 18.9977 0.789318C19.6421 0.726505 21.4181 0.742447 22.2064 0.811993L22.2071 0.812065C24.738 1.04355 26.8711 1.65424 29.1538 2.78016L29.1541 2.78029C31.3357 3.85955 32.9748 5.04996 34.6413 6.77802C36.1454 8.32844 37.2197 9.85102 38.1761 11.7793C39.6425 14.7277 40.3221 17.863 40.2063 21.1511L40.2063 21.1517C40.0906 24.2055 39.3956 26.8785 37.9989 29.564C36.4625 32.5364 34.132 35.1212 31.3159 36.996C30.2847 37.686 28.3002 38.6782 27.1456 39.0889L27.1453 39.089C23.3801 40.4238 19.504 40.6093 15.6455 39.6369C14.1718 39.2665 13.2333 38.9173 11.7862 38.2092L11.7859 38.209C9.7105 37.1906 8.23269 36.1303 6.52982 34.4351L6.52902 34.4343C4.81842 32.716 3.77341 31.261 2.71706 29.1021C1.77479 27.1943 1.17318 25.2025 0.849693 22.9305C0.782019 22.4606 0.75 21.4681 0.75 20.4945C0.75 19.5211 0.782006 18.5288 0.849651 18.0587C1.03456 16.7567 1.34265 15.4393 1.72069 14.282L1.72117 14.2806C2.20044 12.8427 3.18555 10.8183 3.99089 9.61025L3.99158 9.60921C5.90411 6.77127 8.51919 4.42517 11.4394 2.93414ZM22.0091 3.59627L22.009 3.59626C17.5347 3.18336 12.9901 4.62487 9.50426 7.55464C5.75773 10.7155 3.49628 15.5764 3.49628 20.4945C3.49628 25.4129 5.76558 30.2961 9.50355 33.4261L9.50362 33.4262C11.9602 35.4846 14.7761 36.7617 18.0327 37.2882L18.0329 37.2882C18.5995 37.3802 19.5285 37.4279 20.4697 37.4279C21.4108 37.4279 22.3398 37.3802 22.9064 37.2882L22.9073 37.2881C24.8045 36.9869 26.244 36.5368 27.8669 35.7479C31.3226 34.0575 34.0406 31.3392 35.7154 27.8993L35.7156 27.899C36.512 26.2686 36.9621 24.8293 37.2632 22.9321L37.2634 22.9312C37.3554 22.3646 37.403 21.4357 37.403 20.4945C37.403 19.5533 37.3554 18.6244 37.2634 18.0577L37.2632 18.0569C36.9621 16.1596 36.512 14.7203 35.7156 13.0899L35.7153 13.0894C33.1242 7.74949 27.9042 4.13697 22.0091 3.59627Z" fill="#4154F1" stroke="#4154F1" stroke-width="0.5"/>
<path d="M12.1473 12.5988L12.1478 12.5987C12.5241 12.5169 12.9725 12.486 13.4663 12.5017L13.4663 12.5017L13.4696 12.5018C15.4268 12.5897 17.0399 13.6328 17.919 15.3904C18.0662 15.6812 18.162 15.8847 18.2141 16.0575C18.2705 16.2446 18.2745 16.3912 18.2569 16.5634C18.1832 17.3574 17.5325 17.916 16.7468 17.8318L16.7468 17.8319L16.742 17.8313C16.4708 17.7968 16.2429 17.7211 16.0376 17.5421C15.843 17.3724 15.688 17.1259 15.5215 16.7968L15.521 16.7958C15.1419 16.0375 14.6345 15.5891 13.9805 15.3915L13.9799 15.3913C12.7723 15.0235 11.603 15.539 11.0543 16.6707C10.8668 17.0611 10.6771 17.3582 10.4444 17.5564C10.2002 17.7644 9.92665 17.8485 9.60975 17.8485C9.21128 17.8485 8.8503 17.6755 8.55815 17.3575C8.4654 17.2595 8.39571 17.1537 8.34848 17.0173C8.30337 16.8869 8.28248 16.739 8.27053 16.5638L8.27052 16.5638L8.27038 16.5615C8.25845 16.3587 8.25843 16.2004 8.31027 16.0111C8.3588 15.834 8.45055 15.6389 8.59342 15.3531C9.26791 13.9963 10.6496 12.9272 12.1473 12.5988Z" fill="#4154F1" stroke="#4154F1" stroke-width="0.5"/>
<path d="M24.1887 17.5756L24.2176 17.824C23.4236 17.9163 22.7673 17.3897 22.6753 16.5986L22.6753 16.5986L22.6751 16.5966C22.6569 16.4291 22.6614 16.2844 22.7173 16.0964C22.769 15.9227 22.8642 15.7142 23.0119 15.4149L23.0119 15.4149L23.0125 15.4138C23.2175 15.0036 23.5564 14.4816 23.7872 14.2178L23.7872 14.2178L23.7883 14.2165C24.4891 13.4272 25.5196 12.8386 26.6247 12.5842L26.6255 12.584C26.9432 12.512 27.4224 12.492 27.8847 12.5094C28.3476 12.5268 28.8294 12.5831 29.1528 12.6797C29.9881 12.9286 30.6791 13.3479 31.3539 14.0304C32.0143 14.6833 32.512 15.4774 32.6631 16.1407L32.6637 16.1434C32.8565 17.0341 32.2172 17.8485 31.3067 17.8485C31.0223 17.8485 30.7726 17.7649 30.5437 17.5744C30.325 17.3923 30.1353 17.1207 29.9434 16.7644L29.9431 16.7639C29.745 16.3939 29.5861 16.1541 29.4129 15.9725C29.2429 15.7942 29.0489 15.6614 28.7655 15.5214C28.2093 15.2504 27.6177 15.1969 27.0626 15.3543C26.307 15.5763 25.8183 15.9967 25.419 16.8095L25.4188 16.81C25.2597 17.1321 25.1084 17.3757 24.9157 17.5433C24.7124 17.7201 24.4852 17.7938 24.2167 17.8241L24.1887 17.5756ZM24.1887 17.5756C24.6612 17.5223 24.8822 17.3318 25.1947 16.6992L26.6807 12.8278C25.6214 13.0717 24.6383 13.6356 23.9753 14.3825C23.7619 14.6263 23.4342 15.1293 23.2361 15.5256C22.9388 16.1277 22.8931 16.2877 22.9236 16.5697C22.9998 17.2251 23.5333 17.6519 24.1887 17.5756Z" fill="#4154F1" stroke="#4154F1" stroke-width="0.5"/>
<path d="M25.0896 30.3067L25.0896 30.3068C21.5729 32.304 17.3662 31.8543 14.2253 29.1511C13.7281 28.7248 13.2349 28.1685 12.8649 27.6537C12.6798 27.396 12.522 27.144 12.4094 26.9195C12.3017 26.7048 12.2178 26.482 12.2178 26.2941C12.2178 25.8371 12.4729 25.3628 12.855 25.1106C13.0528 24.9775 13.3025 24.9089 13.5428 24.8957C13.7826 24.8824 14.0392 24.9227 14.2521 25.0359C14.3136 25.0673 14.3737 25.1169 14.4232 25.1619C14.4781 25.2118 14.5379 25.2729 14.5989 25.34C14.7211 25.4743 14.8566 25.6418 14.9797 25.8126L14.9797 25.8126L14.9819 25.8157C15.9684 27.2292 17.4549 28.2362 19.0917 28.6032L19.0917 28.6032L19.0942 28.6038C19.4401 28.685 19.9704 28.7267 20.5094 28.7258C21.0485 28.7248 21.567 28.6812 21.8898 28.6041C23.5583 28.1997 25.075 27.1473 26.0462 25.7133C26.2343 25.4274 26.4128 25.2132 26.6343 25.0764C26.8634 24.935 27.1099 24.8934 27.3972 24.8934C27.5565 24.8934 27.6936 24.9052 27.8235 24.9476C27.9563 24.991 28.0631 25.0602 28.1707 25.1463L28.1708 25.1462L28.1761 25.1508C28.4828 25.4106 28.6795 25.7107 28.7167 26.0703C28.7531 26.4226 28.6312 26.785 28.404 27.1623L28.4037 27.1628C27.6781 28.3616 26.4106 29.5564 25.0896 30.3067Z" fill="#4154F1" stroke="#4154F1" stroke-width="0.5"/>
</svg>
