<svg width="50" height="50" viewBox="0 0 50 50" fill="none" xmlns="http://www.w3.org/2000/svg">
<path d="M35.4167 43.75C37.7179 43.75 39.5833 41.8845 39.5833 39.5833C39.5833 37.2821 37.7179 35.4166 35.4167 35.4166C33.1155 35.4166 31.25 37.2821 31.25 39.5833C31.25 41.8845 33.1155 43.75 35.4167 43.75Z" stroke="#15BE56" stroke-width="3" stroke-linecap="round" stroke-linejoin="round"/>
<path d="M16.6667 43.75C18.9679 43.75 20.8333 41.8845 20.8333 39.5833C20.8333 37.2821 18.9679 35.4166 16.6667 35.4166C14.3655 35.4166 12.5 37.2821 12.5 39.5833C12.5 41.8845 14.3655 43.75 16.6667 43.75Z" stroke="#15BE56" stroke-width="3" stroke-linecap="round" stroke-linejoin="round"/>
<path d="M6.25 6.25H8.73247C9.71484 6.25 10.5637 6.93625 10.7696 7.89681L16.3138 33.7699C16.5196 34.7304 17.3685 35.4167 18.3509 35.4167H35.4167" stroke="#15BE56" stroke-width="3" stroke-linecap="round" stroke-linejoin="round"/>
<path d="M12.5 12.5H40.9808C42.3671 12.5 43.3667 13.8287 42.9825 15.1608L39.3767 27.6608C39.1194 28.5526 38.3032 29.1667 37.375 29.1667H16.1058" stroke="#15BE56" stroke-width="3" stroke-linecap="round" stroke-linejoin="round"/>
</svg>
