<svg width="50" height="50" viewBox="0 0 50 50" fill="none" xmlns="http://www.w3.org/2000/svg">
<path d="M14.5833 41.6666C14.5833 38.2148 19.247 35.4166 24.9999 35.4166C30.7529 35.4166 35.4166 38.2148 35.4166 41.6666" stroke="#BB0852" stroke-width="3" stroke-linecap="round" stroke-linejoin="round"/>
<path d="M37.5 29.6865C41.179 30.651 43.75 32.8536 43.75 35.4165" stroke="#BB0852" stroke-width="3" stroke-linecap="round" stroke-linejoin="round"/>
<path d="M12.5 29.6865C8.82103 30.651 6.25 32.8536 6.25 35.4165" stroke="#BB0852" stroke-width="3" stroke-linecap="round" stroke-linejoin="round"/>
<path d="M25 29.1666C28.4518 29.1666 31.25 26.3684 31.25 22.9166C31.25 19.4648 28.4518 16.6666 25 16.6666C21.5482 16.6666 18.75 19.4648 18.75 22.9166C18.75 26.3684 21.5482 29.1666 25 29.1666Z" stroke="#BB0852" stroke-width="3" stroke-linecap="round" stroke-linejoin="round"/>
<path d="M37.5001 21.3252C38.7787 20.1808 39.5834 18.5177 39.5834 16.6666C39.5834 13.2148 36.7852 10.4166 33.3334 10.4166C31.7327 10.4166 30.2725 11.0184 29.1667 12.0081" stroke="#BB0852" stroke-width="3" stroke-linecap="round" stroke-linejoin="round"/>
<path d="M12.5001 21.3252C11.2214 20.1808 10.4167 18.5177 10.4167 16.6666C10.4167 13.2148 13.215 10.4166 16.6667 10.4166C18.2675 10.4166 19.7277 11.0184 20.8334 12.0081" stroke="#BB0852" stroke-width="3" stroke-linecap="round" stroke-linejoin="round"/>
</svg>
