<svg width="57" height="39" viewBox="0 0 57 39" fill="none" xmlns="http://www.w3.org/2000/svg">
<path d="M34.7495 16.4495V10.0067V3.52271V3.42271H34.6495H20.5806H6.53624L6.07362 3.1809L6.07265 3.18039C5.76789 3.02534 5.55718 2.85853 5.41407 2.6559C5.27129 2.45374 5.18994 2.20759 5.15807 1.88374C5.09547 1.23659 5.34406 0.699982 5.85227 0.346939C5.85255 0.346741 5.85284 0.346542 5.85313 0.346344L6.22271 0.0999794H21.5603H36.898L37.2346 0.324387C37.2349 0.324581 37.2352 0.324772 37.2355 0.324966C37.5893 0.570026 37.775 0.743385 37.8845 1.00707C37.9973 1.27886 38.0337 1.6564 38.0502 2.32526L38.0503 2.32645L38.0943 3.52638L38.0979 3.62271H38.1942H42.1463C44.336 3.62271 45.4441 3.62572 46.0699 3.70989C46.3806 3.75167 46.5608 3.81225 46.6923 3.89522C46.824 3.97836 46.9155 4.08902 47.0422 4.2543C47.0573 4.27506 47.0913 4.33153 47.145 4.42714C47.1979 4.52149 47.267 4.64864 47.3504 4.805C47.5173 5.11761 47.7407 5.54543 48.0048 6.05783C48.533 7.08256 49.2236 8.44449 49.95 9.89734L52.592 15.1814L52.5965 15.1904L52.6026 15.1982L54.32 17.3999L54.32 17.4C54.8091 18.0265 55.2484 18.6169 55.5734 19.0776C55.736 19.3081 55.8695 19.5054 55.9661 19.6583C56.0144 19.7347 56.053 19.7992 56.0813 19.8507C56.1102 19.9033 56.1251 19.9366 56.1302 19.9535C56.1352 19.9713 56.1426 20.0256 56.1502 20.1261C56.1576 20.2234 56.1647 20.3548 56.1714 20.5183C56.1848 20.8452 56.1964 21.2973 56.2061 21.855C56.2253 22.9702 56.2363 24.5053 56.2363 26.2994C56.2363 29.2233 56.2336 30.7235 56.2034 31.5496C56.1883 31.963 56.1664 32.2023 56.1359 32.3649C56.1061 32.5231 56.0681 32.6092 56.0153 32.7176L56.0143 32.7195C55.89 32.9889 55.6386 33.2707 55.425 33.4029L55.4244 33.4033C55.3306 33.4623 55.2575 33.5033 55.159 33.5355C55.059 33.5681 54.9284 33.593 54.7197 33.6127C54.3006 33.6522 53.5899 33.6686 52.2282 33.6962C52.2282 33.6962 52.2281 33.6962 52.2281 33.6962M34.7495 16.4495L52.2301 33.7962L52.2281 33.6962M34.7495 16.4495L34.9738 16.786C35.1135 16.979 35.3588 17.2443 35.5123 17.3569L35.5131 17.3575C35.5507 17.3857 35.5795 17.406 35.6164 17.4238C35.6532 17.4415 35.7019 17.4583 35.778 17.4736C35.9331 17.5049 36.1897 17.5275 36.6675 17.544C37.6172 17.5768 39.414 17.5851 42.9572 17.6015L42.9944 17.6017L50.227 17.6347L50.276 17.635L50.3058 17.6737L51.5936 19.3467L51.5938 19.347L52.8926 21.02L52.9136 21.0471V21.0813V25.6169V30.1634V30.2634H52.8136H51.1183H49.423H49.3509L49.3281 30.195L49.097 29.5016L34.7495 16.4495ZM52.2281 33.6962L49.388 33.7513L49.3217 33.7525L49.2971 33.8141L49.0109 34.5297C48.2078 36.5373 46.4053 38.1327 44.3676 38.6531C43.4123 38.8918 41.9414 38.9351 41.0323 38.7511L41.0318 38.751C40.5996 38.6656 39.9902 38.4202 39.396 38.1135C38.8024 37.8071 38.2355 37.4456 37.8865 37.1342L37.8863 37.134C37.509 36.7998 37.0987 36.3087 36.7508 35.7985C36.4024 35.2874 36.1223 34.7657 36 34.372L35.9995 34.3706L35.8014 33.7651L35.7788 33.6962H35.7063H30.4222H25.1271H25.0582L25.0337 33.7606L24.7695 34.454C23.9778 36.5256 22.1325 38.1544 19.9287 38.7081L19.9287 38.7081C18.4233 39.0872 16.3571 38.8266 14.9582 38.0893M52.2281 33.6962L14.9582 38.0893M35.8714 29.5249L35.6733 30.1083M35.8714 29.5249C37.0824 25.9581 41.1666 23.9876 44.8324 25.2095L35.6733 30.1083M35.8714 29.5249L35.9661 29.557L35.768 30.1405L35.7449 30.2083H35.6733H30.4222H25.1711H25.1027L25.0779 30.1446L24.7699 29.3524M35.8714 29.5249L35.9661 29.557C37.1587 26.0445 41.185 24.0991 44.8008 25.3044L44.8009 25.3045C46.6988 25.9335 48.4908 27.6942 49.0969 29.5015L24.7699 29.3524M35.6733 30.1083H30.4222M35.6733 30.1083H30.4222M24.7699 29.3524C24.7698 29.3523 24.7698 29.3522 24.7698 29.3521C24.1623 27.8119 23.0013 26.5312 21.5031 25.7495L21.5028 25.7494C20.4487 25.1952 19.5069 24.9573 18.3569 24.9573L18.356 24.9573C17.1271 24.9464 16.3165 25.1302 15.2627 25.63C13.5562 26.4562 12.1683 27.9881 11.6601 29.6096C11.6601 29.6097 11.66 29.6097 11.66 29.6098L11.484 30.1818L11.4626 30.2514L11.3898 30.2524L8.84678 30.2854L8.84667 30.2854C7.44337 30.302 6.70778 30.3216 6.25537 30.422C6.03345 30.4712 5.88594 30.5388 5.76337 30.6319C5.63884 30.7265 5.53446 30.8514 5.40299 31.0267C5.2512 31.2326 5.16965 31.592 5.17368 31.9718C5.1777 32.351 5.2667 32.7212 5.42626 32.9456L5.34477 33.0036M24.7699 29.3524L5.34477 33.0036M5.34477 33.0036L5.42614 32.9455C5.54957 33.1183 5.64701 33.2405 5.76599 33.333C5.88288 33.4239 6.0264 33.4903 6.24696 33.5389C6.69669 33.638 7.43781 33.6576 8.85766 33.6742L8.85822 33.6742L11.4012 33.7182L11.4689 33.7194L11.493 33.7827L11.7352 34.4212L11.7352 34.4214C11.9941 35.1063 12.471 35.8475 13.0502 36.5071C13.6293 37.1666 14.3054 37.7386 14.9582 38.0893M5.34477 33.0036C4.9925 32.5082 4.98149 31.4294 5.32275 30.967L14.9582 38.0893M30.4222 30.1083H25.1711H30.4222ZM41.0124 38.8491C41.9371 39.0363 43.4233 38.9922 44.3921 38.75L41.0124 38.8491ZM38.1722 14.301H38.0722V14.201V10.6232V7.04545V6.94545H38.1722H41.4198H44.6673H44.7291L44.7567 7.00072L46.5181 10.5235C47.0025 11.4923 47.4429 12.3787 47.7623 13.0271C47.922 13.3512 48.0515 13.6161 48.1411 13.802C48.1859 13.895 48.2209 13.9686 48.2448 14.0202C48.2512 14.034 48.2569 14.0465 48.2618 14.0575C48.2661 14.0668 48.2697 14.0751 48.2727 14.0821C48.276 14.0897 48.279 14.0969 48.2813 14.1031C48.2824 14.1061 48.2839 14.1101 48.2852 14.1145C48.2853 14.1148 48.29 14.1288 48.29 14.146C48.29 14.1846 48.269 14.2094 48.2579 14.2198C48.2467 14.2303 48.2356 14.2358 48.2306 14.2381C48.22 14.2431 48.2103 14.2454 48.206 14.2464C48.196 14.2488 48.1849 14.2503 48.1754 14.2514C48.1552 14.2537 48.1272 14.2557 48.0933 14.2576C48.0246 14.2615 47.9245 14.2651 47.797 14.2685C47.5416 14.2752 47.1729 14.281 46.7187 14.2859C45.81 14.2955 44.5574 14.301 43.1811 14.301H38.1722ZM19.5695 28.5394L19.5704 28.5398C20.4329 28.8689 21.1899 29.5929 21.5855 30.4747L21.5857 30.475C21.718 30.7728 21.7971 30.9728 21.8351 31.2025C21.8729 31.4306 21.8693 31.6829 21.8473 32.0843L21.8473 32.0849C21.7799 33.1977 21.4398 33.9507 20.6684 34.6201C19.0169 36.0788 16.469 35.7639 15.2788 33.9389C14.2621 32.391 14.4547 30.5877 15.7771 29.2991L15.7774 29.2988C16.7748 28.3355 18.2247 28.0422 19.5695 28.5394ZM44.0941 28.6311L44.0946 28.6314C46.3454 29.7285 46.8691 32.7722 45.0891 34.4955C43.3356 36.2035 40.4262 35.7413 39.3271 33.5885L39.3269 33.5879C38.2966 31.5388 39.329 29.1288 41.554 28.406L41.5544 28.4058C41.8496 28.3114 42.3397 28.2994 42.8185 28.3423C43.2985 28.3853 43.7916 28.4857 44.0941 28.6311Z" fill="#EE6C20" stroke="white" stroke-width="0.2"/>
<path d="M3.03139 9.34565L3.0315 9.34616C3.09505 9.62685 3.19438 9.84913 3.33613 10.0305C3.47762 10.2115 3.66528 10.3567 3.91277 10.4779C4.02539 10.5303 4.11166 10.5676 4.29965 10.5963C4.49359 10.6258 4.79408 10.6457 5.33337 10.6581C6.41055 10.6828 8.42051 10.6773 12.39 10.6663L12.4233 10.6662C16.3817 10.6498 18.3833 10.6415 19.434 10.6086C19.9622 10.5921 20.2436 10.5694 20.411 10.538C20.4934 10.5225 20.5446 10.5056 20.5824 10.4879C20.6199 10.4703 20.6481 10.4504 20.6858 10.4221L20.6866 10.4215C20.8402 10.3089 21.0856 10.0434 21.2252 9.85037C21.4585 9.50465 21.5073 9.05179 21.3949 8.62445C21.2825 8.1969 21.0112 7.80546 20.6195 7.58383L20.6194 7.58376C20.5235 7.52933 20.4548 7.49153 20.283 7.46166C20.104 7.43053 19.8164 7.40892 19.2858 7.39447C18.2266 7.36562 16.2223 7.36561 12.2364 7.36561C8.9996 7.37112 6.97766 7.37937 5.73053 7.40137C5.10676 7.41238 4.6784 7.4268 4.38939 7.44589C4.24482 7.45545 4.13671 7.46607 4.05723 7.47773C3.97587 7.48967 3.9316 7.50177 3.91006 7.51122C3.6001 7.64845 3.33777 7.9261 3.17395 8.2642C3.01025 8.60208 2.94928 8.99156 3.03139 9.34565Z" fill="#EE6C20" stroke="white" stroke-width="0.2"/>
<path d="M0.908498 17.3871L0.908515 17.3871L0.910593 17.3885L1.24811 17.6238H9.32999H17.4119L17.7494 17.3885L17.7494 17.3885L17.7511 17.3874C18.259 17.0487 18.5031 16.6664 18.5547 16.1618C18.6167 15.4983 18.264 14.8441 17.6515 14.5325C17.6514 14.5325 17.6513 14.5324 17.6512 14.5323L17.1885 14.301H9.32999H1.47148L1.0088 14.5324C1.00871 14.5324 1.00861 14.5325 1.00852 14.5325C0.372275 14.856 0.053871 15.4236 0.105402 16.0971C0.131889 16.3822 0.202601 16.6168 0.329 16.8223C0.455703 17.0284 0.64206 17.2112 0.908498 17.3871Z" fill="#EE6C20" stroke="white" stroke-width="0.2"/>
<path d="M3.80213 21.5511L3.80213 21.5511L3.80081 21.5519C2.91639 22.093 2.73334 23.329 3.42505 24.062L3.42551 24.0625C3.57558 24.2237 3.67837 24.3316 3.82308 24.4125C3.96711 24.4931 4.16038 24.5508 4.49375 24.59C5.16463 24.669 6.35898 24.6692 8.75751 24.6692C10.9501 24.6692 12.0445 24.6691 12.6521 24.6376C12.9557 24.6219 13.1313 24.5986 13.259 24.5655C13.3843 24.5331 13.4669 24.4906 13.5876 24.4275C14.5052 23.9371 14.7678 22.722 14.1305 21.9717L14.13 21.9711C14.1226 21.9623 14.1154 21.9536 14.1083 21.9451C13.977 21.7879 13.8904 21.6841 13.7643 21.6052C13.6332 21.5232 13.4513 21.464 13.1187 21.4242C12.4696 21.3463 11.2961 21.3464 8.92732 21.3464C8.85354 21.3464 8.77859 21.3464 8.70247 21.3464C6.51596 21.3464 5.36299 21.3492 4.71493 21.378C4.39051 21.3924 4.1985 21.4131 4.06888 21.4416C3.94392 21.4691 3.87691 21.5037 3.80213 21.5511Z" fill="#EE6C20" stroke="white" stroke-width="0.2"/>
</svg>
